<?xml version="1.0" encoding="utf-8" standalone="no"?>
<!DOCTYPE svg PUBLIC "-//W3C//DTD SVG 1.1//EN"
  "http://www.w3.org/Graphics/SVG/1.1/DTD/svg11.dtd">
<svg xmlns:xlink="http://www.w3.org/1999/xlink" width="397.453125pt" height="279.50925pt" viewBox="0 0 397.453125 279.50925" xmlns="http://www.w3.org/2000/svg" version="1.1">
 <metadata>
  <rdf:RDF xmlns:dc="http://purl.org/dc/elements/1.1/" xmlns:cc="http://creativecommons.org/ns#" xmlns:rdf="http://www.w3.org/1999/02/22-rdf-syntax-ns#">
   <cc:Work>
    <dc:type rdf:resource="http://purl.org/dc/dcmitype/StillImage"/>
    <dc:date>2023-04-04T21:40:41.048563</dc:date>
    <dc:format>image/svg+xml</dc:format>
    <dc:creator>
     <cc:Agent>
      <dc:title>Matplotlib v3.6.2, https://matplotlib.org/</dc:title>
     </cc:Agent>
    </dc:creator>
   </cc:Work>
  </rdf:RDF>
 </metadata>
 <defs>
  <style type="text/css">*{stroke-linejoin: round; stroke-linecap: butt}</style>
 </defs>
 <g id="figure_1">
  <g id="patch_1">
   <path d="M 0 279.50925 
L 397.453125 279.50925 
L 397.453125 0 
L 0 0 
z
" style="fill: #ffffff"/>
  </g>
  <g id="axes_1">
   <g id="patch_2">
    <path d="M 55.453125 241.58175 
L 390.253125 241.58175 
L 390.253125 24.14175 
L 55.453125 24.14175 
z
" style="fill: #ffffff"/>
   </g>
   <g id="matplotlib.axis_1">
    <g id="xtick_1">
     <g id="line2d_1">
      <defs>
       <path id="mdcd4fc1808" d="M 0 0 
L 0 -6 
" style="stroke: #000000; stroke-width: 1.5"/>
      </defs>
      <g>
       <use xlink:href="#mdcd4fc1808" x="70.671307" y="241.58175" style="stroke: #000000; stroke-width: 1.5"/>
      </g>
     </g>
     <g id="line2d_2">
      <defs>
       <path id="mb689537aab" d="M 0 0 
L 0 6 
" style="stroke: #000000; stroke-width: 1.5"/>
      </defs>
      <g>
       <use xlink:href="#mb689537aab" x="70.671307" y="24.14175" style="stroke: #000000; stroke-width: 1.5"/>
      </g>
     </g>
     <g id="text_1">
      <!-- 0 -->
      <g transform="translate(66.853807 254.199875) scale(0.12 -0.12)">
       <defs>
        <path id="DejaVuSans-30" d="M 2034 4250 
Q 1547 4250 1301 3770 
Q 1056 3291 1056 2328 
Q 1056 1369 1301 889 
Q 1547 409 2034 409 
Q 2525 409 2770 889 
Q 3016 1369 3016 2328 
Q 3016 3291 2770 3770 
Q 2525 4250 2034 4250 
z
M 2034 4750 
Q 2819 4750 3233 4129 
Q 3647 3509 3647 2328 
Q 3647 1150 3233 529 
Q 2819 -91 2034 -91 
Q 1250 -91 836 529 
Q 422 1150 422 2328 
Q 422 3509 836 4129 
Q 1250 4750 2034 4750 
z
" transform="scale(0.015625)"/>
       </defs>
       <use xlink:href="#DejaVuSans-30"/>
      </g>
     </g>
    </g>
    <g id="xtick_2">
     <g id="line2d_3">
      <g>
       <use xlink:href="#mdcd4fc1808" x="131.544034" y="241.58175" style="stroke: #000000; stroke-width: 1.5"/>
      </g>
     </g>
     <g id="line2d_4">
      <g>
       <use xlink:href="#mb689537aab" x="131.544034" y="24.14175" style="stroke: #000000; stroke-width: 1.5"/>
      </g>
     </g>
     <g id="text_2">
      <!-- 2 -->
      <g transform="translate(127.726534 254.199875) scale(0.12 -0.12)">
       <defs>
        <path id="DejaVuSans-32" d="M 1228 531 
L 3431 531 
L 3431 0 
L 469 0 
L 469 531 
Q 828 903 1448 1529 
Q 2069 2156 2228 2338 
Q 2531 2678 2651 2914 
Q 2772 3150 2772 3378 
Q 2772 3750 2511 3984 
Q 2250 4219 1831 4219 
Q 1534 4219 1204 4116 
Q 875 4013 500 3803 
L 500 4441 
Q 881 4594 1212 4672 
Q 1544 4750 1819 4750 
Q 2544 4750 2975 4387 
Q 3406 4025 3406 3419 
Q 3406 3131 3298 2873 
Q 3191 2616 2906 2266 
Q 2828 2175 2409 1742 
Q 1991 1309 1228 531 
z
" transform="scale(0.015625)"/>
       </defs>
       <use xlink:href="#DejaVuSans-32"/>
      </g>
     </g>
    </g>
    <g id="xtick_3">
     <g id="line2d_5">
      <g>
       <use xlink:href="#mdcd4fc1808" x="192.416761" y="241.58175" style="stroke: #000000; stroke-width: 1.5"/>
      </g>
     </g>
     <g id="line2d_6">
      <g>
       <use xlink:href="#mb689537aab" x="192.416761" y="24.14175" style="stroke: #000000; stroke-width: 1.5"/>
      </g>
     </g>
     <g id="text_3">
      <!-- 4 -->
      <g transform="translate(188.599261 254.199875) scale(0.12 -0.12)">
       <defs>
        <path id="DejaVuSans-34" d="M 2419 4116 
L 825 1625 
L 2419 1625 
L 2419 4116 
z
M 2253 4666 
L 3047 4666 
L 3047 1625 
L 3713 1625 
L 3713 1100 
L 3047 1100 
L 3047 0 
L 2419 0 
L 2419 1100 
L 313 1100 
L 313 1709 
L 2253 4666 
z
" transform="scale(0.015625)"/>
       </defs>
       <use xlink:href="#DejaVuSans-34"/>
      </g>
     </g>
    </g>
    <g id="xtick_4">
     <g id="line2d_7">
      <g>
       <use xlink:href="#mdcd4fc1808" x="253.289489" y="241.58175" style="stroke: #000000; stroke-width: 1.5"/>
      </g>
     </g>
     <g id="line2d_8">
      <g>
       <use xlink:href="#mb689537aab" x="253.289489" y="24.14175" style="stroke: #000000; stroke-width: 1.5"/>
      </g>
     </g>
     <g id="text_4">
      <!-- 6 -->
      <g transform="translate(249.471989 254.199875) scale(0.12 -0.12)">
       <defs>
        <path id="DejaVuSans-36" d="M 2113 2584 
Q 1688 2584 1439 2293 
Q 1191 2003 1191 1497 
Q 1191 994 1439 701 
Q 1688 409 2113 409 
Q 2538 409 2786 701 
Q 3034 994 3034 1497 
Q 3034 2003 2786 2293 
Q 2538 2584 2113 2584 
z
M 3366 4563 
L 3366 3988 
Q 3128 4100 2886 4159 
Q 2644 4219 2406 4219 
Q 1781 4219 1451 3797 
Q 1122 3375 1075 2522 
Q 1259 2794 1537 2939 
Q 1816 3084 2150 3084 
Q 2853 3084 3261 2657 
Q 3669 2231 3669 1497 
Q 3669 778 3244 343 
Q 2819 -91 2113 -91 
Q 1303 -91 875 529 
Q 447 1150 447 2328 
Q 447 3434 972 4092 
Q 1497 4750 2381 4750 
Q 2619 4750 2861 4703 
Q 3103 4656 3366 4563 
z
" transform="scale(0.015625)"/>
       </defs>
       <use xlink:href="#DejaVuSans-36"/>
      </g>
     </g>
    </g>
    <g id="xtick_5">
     <g id="line2d_9">
      <g>
       <use xlink:href="#mdcd4fc1808" x="314.162216" y="241.58175" style="stroke: #000000; stroke-width: 1.5"/>
      </g>
     </g>
     <g id="line2d_10">
      <g>
       <use xlink:href="#mb689537aab" x="314.162216" y="24.14175" style="stroke: #000000; stroke-width: 1.5"/>
      </g>
     </g>
     <g id="text_5">
      <!-- 8 -->
      <g transform="translate(310.344716 254.199875) scale(0.12 -0.12)">
       <defs>
        <path id="DejaVuSans-38" d="M 2034 2216 
Q 1584 2216 1326 1975 
Q 1069 1734 1069 1313 
Q 1069 891 1326 650 
Q 1584 409 2034 409 
Q 2484 409 2743 651 
Q 3003 894 3003 1313 
Q 3003 1734 2745 1975 
Q 2488 2216 2034 2216 
z
M 1403 2484 
Q 997 2584 770 2862 
Q 544 3141 544 3541 
Q 544 4100 942 4425 
Q 1341 4750 2034 4750 
Q 2731 4750 3128 4425 
Q 3525 4100 3525 3541 
Q 3525 3141 3298 2862 
Q 3072 2584 2669 2484 
Q 3125 2378 3379 2068 
Q 3634 1759 3634 1313 
Q 3634 634 3220 271 
Q 2806 -91 2034 -91 
Q 1263 -91 848 271 
Q 434 634 434 1313 
Q 434 1759 690 2068 
Q 947 2378 1403 2484 
z
M 1172 3481 
Q 1172 3119 1398 2916 
Q 1625 2713 2034 2713 
Q 2441 2713 2670 2916 
Q 2900 3119 2900 3481 
Q 2900 3844 2670 4047 
Q 2441 4250 2034 4250 
Q 1625 4250 1398 4047 
Q 1172 3844 1172 3481 
z
" transform="scale(0.015625)"/>
       </defs>
       <use xlink:href="#DejaVuSans-38"/>
      </g>
     </g>
    </g>
    <g id="xtick_6">
     <g id="line2d_11">
      <g>
       <use xlink:href="#mdcd4fc1808" x="375.034943" y="241.58175" style="stroke: #000000; stroke-width: 1.5"/>
      </g>
     </g>
     <g id="line2d_12">
      <g>
       <use xlink:href="#mb689537aab" x="375.034943" y="24.14175" style="stroke: #000000; stroke-width: 1.5"/>
      </g>
     </g>
     <g id="text_6">
      <!-- 10 -->
      <g transform="translate(367.399943 254.199875) scale(0.12 -0.12)">
       <defs>
        <path id="DejaVuSans-31" d="M 794 531 
L 1825 531 
L 1825 4091 
L 703 3866 
L 703 4441 
L 1819 4666 
L 2450 4666 
L 2450 531 
L 3481 531 
L 3481 0 
L 794 0 
L 794 531 
z
" transform="scale(0.015625)"/>
       </defs>
       <use xlink:href="#DejaVuSans-31"/>
       <use xlink:href="#DejaVuSans-30" x="63.623047"/>
      </g>
     </g>
    </g>
    <g id="xtick_7">
     <g id="line2d_13">
      <defs>
       <path id="m5d6acfe31c" d="M 0 0 
L 0 -3 
" style="stroke: #000000; stroke-width: 1.5"/>
      </defs>
      <g>
       <use xlink:href="#m5d6acfe31c" x="85.889489" y="241.58175" style="stroke: #000000; stroke-width: 1.5"/>
      </g>
     </g>
     <g id="line2d_14">
      <defs>
       <path id="me0697223a3" d="M 0 0 
L 0 3 
" style="stroke: #000000; stroke-width: 1.5"/>
      </defs>
      <g>
       <use xlink:href="#me0697223a3" x="85.889489" y="24.14175" style="stroke: #000000; stroke-width: 1.5"/>
      </g>
     </g>
    </g>
    <g id="xtick_8">
     <g id="line2d_15">
      <g>
       <use xlink:href="#m5d6acfe31c" x="101.10767" y="241.58175" style="stroke: #000000; stroke-width: 1.5"/>
      </g>
     </g>
     <g id="line2d_16">
      <g>
       <use xlink:href="#me0697223a3" x="101.10767" y="24.14175" style="stroke: #000000; stroke-width: 1.5"/>
      </g>
     </g>
    </g>
    <g id="xtick_9">
     <g id="line2d_17">
      <g>
       <use xlink:href="#m5d6acfe31c" x="116.325852" y="241.58175" style="stroke: #000000; stroke-width: 1.5"/>
      </g>
     </g>
     <g id="line2d_18">
      <g>
       <use xlink:href="#me0697223a3" x="116.325852" y="24.14175" style="stroke: #000000; stroke-width: 1.5"/>
      </g>
     </g>
    </g>
    <g id="xtick_10">
     <g id="line2d_19">
      <g>
       <use xlink:href="#m5d6acfe31c" x="146.762216" y="241.58175" style="stroke: #000000; stroke-width: 1.5"/>
      </g>
     </g>
     <g id="line2d_20">
      <g>
       <use xlink:href="#me0697223a3" x="146.762216" y="24.14175" style="stroke: #000000; stroke-width: 1.5"/>
      </g>
     </g>
    </g>
    <g id="xtick_11">
     <g id="line2d_21">
      <g>
       <use xlink:href="#m5d6acfe31c" x="161.980398" y="241.58175" style="stroke: #000000; stroke-width: 1.5"/>
      </g>
     </g>
     <g id="line2d_22">
      <g>
       <use xlink:href="#me0697223a3" x="161.980398" y="24.14175" style="stroke: #000000; stroke-width: 1.5"/>
      </g>
     </g>
    </g>
    <g id="xtick_12">
     <g id="line2d_23">
      <g>
       <use xlink:href="#m5d6acfe31c" x="177.19858" y="241.58175" style="stroke: #000000; stroke-width: 1.5"/>
      </g>
     </g>
     <g id="line2d_24">
      <g>
       <use xlink:href="#me0697223a3" x="177.19858" y="24.14175" style="stroke: #000000; stroke-width: 1.5"/>
      </g>
     </g>
    </g>
    <g id="xtick_13">
     <g id="line2d_25">
      <g>
       <use xlink:href="#m5d6acfe31c" x="207.634943" y="241.58175" style="stroke: #000000; stroke-width: 1.5"/>
      </g>
     </g>
     <g id="line2d_26">
      <g>
       <use xlink:href="#me0697223a3" x="207.634943" y="24.14175" style="stroke: #000000; stroke-width: 1.5"/>
      </g>
     </g>
    </g>
    <g id="xtick_14">
     <g id="line2d_27">
      <g>
       <use xlink:href="#m5d6acfe31c" x="222.853125" y="241.58175" style="stroke: #000000; stroke-width: 1.5"/>
      </g>
     </g>
     <g id="line2d_28">
      <g>
       <use xlink:href="#me0697223a3" x="222.853125" y="24.14175" style="stroke: #000000; stroke-width: 1.5"/>
      </g>
     </g>
    </g>
    <g id="xtick_15">
     <g id="line2d_29">
      <g>
       <use xlink:href="#m5d6acfe31c" x="238.071307" y="241.58175" style="stroke: #000000; stroke-width: 1.5"/>
      </g>
     </g>
     <g id="line2d_30">
      <g>
       <use xlink:href="#me0697223a3" x="238.071307" y="24.14175" style="stroke: #000000; stroke-width: 1.5"/>
      </g>
     </g>
    </g>
    <g id="xtick_16">
     <g id="line2d_31">
      <g>
       <use xlink:href="#m5d6acfe31c" x="268.50767" y="241.58175" style="stroke: #000000; stroke-width: 1.5"/>
      </g>
     </g>
     <g id="line2d_32">
      <g>
       <use xlink:href="#me0697223a3" x="268.50767" y="24.14175" style="stroke: #000000; stroke-width: 1.5"/>
      </g>
     </g>
    </g>
    <g id="xtick_17">
     <g id="line2d_33">
      <g>
       <use xlink:href="#m5d6acfe31c" x="283.725852" y="241.58175" style="stroke: #000000; stroke-width: 1.5"/>
      </g>
     </g>
     <g id="line2d_34">
      <g>
       <use xlink:href="#me0697223a3" x="283.725852" y="24.14175" style="stroke: #000000; stroke-width: 1.5"/>
      </g>
     </g>
    </g>
    <g id="xtick_18">
     <g id="line2d_35">
      <g>
       <use xlink:href="#m5d6acfe31c" x="298.944034" y="241.58175" style="stroke: #000000; stroke-width: 1.5"/>
      </g>
     </g>
     <g id="line2d_36">
      <g>
       <use xlink:href="#me0697223a3" x="298.944034" y="24.14175" style="stroke: #000000; stroke-width: 1.5"/>
      </g>
     </g>
    </g>
    <g id="xtick_19">
     <g id="line2d_37">
      <g>
       <use xlink:href="#m5d6acfe31c" x="329.380398" y="241.58175" style="stroke: #000000; stroke-width: 1.5"/>
      </g>
     </g>
     <g id="line2d_38">
      <g>
       <use xlink:href="#me0697223a3" x="329.380398" y="24.14175" style="stroke: #000000; stroke-width: 1.5"/>
      </g>
     </g>
    </g>
    <g id="xtick_20">
     <g id="line2d_39">
      <g>
       <use xlink:href="#m5d6acfe31c" x="344.59858" y="241.58175" style="stroke: #000000; stroke-width: 1.5"/>
      </g>
     </g>
     <g id="line2d_40">
      <g>
       <use xlink:href="#me0697223a3" x="344.59858" y="24.14175" style="stroke: #000000; stroke-width: 1.5"/>
      </g>
     </g>
    </g>
    <g id="xtick_21">
     <g id="line2d_41">
      <g>
       <use xlink:href="#m5d6acfe31c" x="359.816761" y="241.58175" style="stroke: #000000; stroke-width: 1.5"/>
      </g>
     </g>
     <g id="line2d_42">
      <g>
       <use xlink:href="#me0697223a3" x="359.816761" y="24.14175" style="stroke: #000000; stroke-width: 1.5"/>
      </g>
     </g>
    </g>
    <g id="xtick_22">
     <g id="line2d_43">
      <g>
       <use xlink:href="#m5d6acfe31c" x="390.253125" y="241.58175" style="stroke: #000000; stroke-width: 1.5"/>
      </g>
     </g>
     <g id="line2d_44">
      <g>
       <use xlink:href="#me0697223a3" x="390.253125" y="24.14175" style="stroke: #000000; stroke-width: 1.5"/>
      </g>
     </g>
    </g>
    <g id="text_7">
     <!-- Pulse time -->
     <g transform="translate(191.59125 269.813625) scale(0.12 -0.12)">
      <defs>
       <path id="DejaVuSans-50" d="M 1259 4147 
L 1259 2394 
L 2053 2394 
Q 2494 2394 2734 2622 
Q 2975 2850 2975 3272 
Q 2975 3691 2734 3919 
Q 2494 4147 2053 4147 
L 1259 4147 
z
M 628 4666 
L 2053 4666 
Q 2838 4666 3239 4311 
Q 3641 3956 3641 3272 
Q 3641 2581 3239 2228 
Q 2838 1875 2053 1875 
L 1259 1875 
L 1259 0 
L 628 0 
L 628 4666 
z
" transform="scale(0.015625)"/>
       <path id="DejaVuSans-75" d="M 544 1381 
L 544 3500 
L 1119 3500 
L 1119 1403 
Q 1119 906 1312 657 
Q 1506 409 1894 409 
Q 2359 409 2629 706 
Q 2900 1003 2900 1516 
L 2900 3500 
L 3475 3500 
L 3475 0 
L 2900 0 
L 2900 538 
Q 2691 219 2414 64 
Q 2138 -91 1772 -91 
Q 1169 -91 856 284 
Q 544 659 544 1381 
z
M 1991 3584 
L 1991 3584 
z
" transform="scale(0.015625)"/>
       <path id="DejaVuSans-6c" d="M 603 4863 
L 1178 4863 
L 1178 0 
L 603 0 
L 603 4863 
z
" transform="scale(0.015625)"/>
       <path id="DejaVuSans-73" d="M 2834 3397 
L 2834 2853 
Q 2591 2978 2328 3040 
Q 2066 3103 1784 3103 
Q 1356 3103 1142 2972 
Q 928 2841 928 2578 
Q 928 2378 1081 2264 
Q 1234 2150 1697 2047 
L 1894 2003 
Q 2506 1872 2764 1633 
Q 3022 1394 3022 966 
Q 3022 478 2636 193 
Q 2250 -91 1575 -91 
Q 1294 -91 989 -36 
Q 684 19 347 128 
L 347 722 
Q 666 556 975 473 
Q 1284 391 1588 391 
Q 1994 391 2212 530 
Q 2431 669 2431 922 
Q 2431 1156 2273 1281 
Q 2116 1406 1581 1522 
L 1381 1569 
Q 847 1681 609 1914 
Q 372 2147 372 2553 
Q 372 3047 722 3315 
Q 1072 3584 1716 3584 
Q 2034 3584 2315 3537 
Q 2597 3491 2834 3397 
z
" transform="scale(0.015625)"/>
       <path id="DejaVuSans-65" d="M 3597 1894 
L 3597 1613 
L 953 1613 
Q 991 1019 1311 708 
Q 1631 397 2203 397 
Q 2534 397 2845 478 
Q 3156 559 3463 722 
L 3463 178 
Q 3153 47 2828 -22 
Q 2503 -91 2169 -91 
Q 1331 -91 842 396 
Q 353 884 353 1716 
Q 353 2575 817 3079 
Q 1281 3584 2069 3584 
Q 2775 3584 3186 3129 
Q 3597 2675 3597 1894 
z
M 3022 2063 
Q 3016 2534 2758 2815 
Q 2500 3097 2075 3097 
Q 1594 3097 1305 2825 
Q 1016 2553 972 2059 
L 3022 2063 
z
" transform="scale(0.015625)"/>
       <path id="DejaVuSans-20" transform="scale(0.015625)"/>
       <path id="DejaVuSans-74" d="M 1172 4494 
L 1172 3500 
L 2356 3500 
L 2356 3053 
L 1172 3053 
L 1172 1153 
Q 1172 725 1289 603 
Q 1406 481 1766 481 
L 2356 481 
L 2356 0 
L 1766 0 
Q 1100 0 847 248 
Q 594 497 594 1153 
L 594 3053 
L 172 3053 
L 172 3500 
L 594 3500 
L 594 4494 
L 1172 4494 
z
" transform="scale(0.015625)"/>
       <path id="DejaVuSans-69" d="M 603 3500 
L 1178 3500 
L 1178 0 
L 603 0 
L 603 3500 
z
M 603 4863 
L 1178 4863 
L 1178 4134 
L 603 4134 
L 603 4863 
z
" transform="scale(0.015625)"/>
       <path id="DejaVuSans-6d" d="M 3328 2828 
Q 3544 3216 3844 3400 
Q 4144 3584 4550 3584 
Q 5097 3584 5394 3201 
Q 5691 2819 5691 2113 
L 5691 0 
L 5113 0 
L 5113 2094 
Q 5113 2597 4934 2840 
Q 4756 3084 4391 3084 
Q 3944 3084 3684 2787 
Q 3425 2491 3425 1978 
L 3425 0 
L 2847 0 
L 2847 2094 
Q 2847 2600 2669 2842 
Q 2491 3084 2119 3084 
Q 1678 3084 1418 2786 
Q 1159 2488 1159 1978 
L 1159 0 
L 581 0 
L 581 3500 
L 1159 3500 
L 1159 2956 
Q 1356 3278 1631 3431 
Q 1906 3584 2284 3584 
Q 2666 3584 2933 3390 
Q 3200 3197 3328 2828 
z
" transform="scale(0.015625)"/>
      </defs>
      <use xlink:href="#DejaVuSans-50"/>
      <use xlink:href="#DejaVuSans-75" x="58.552734"/>
      <use xlink:href="#DejaVuSans-6c" x="121.931641"/>
      <use xlink:href="#DejaVuSans-73" x="149.714844"/>
      <use xlink:href="#DejaVuSans-65" x="201.814453"/>
      <use xlink:href="#DejaVuSans-20" x="263.337891"/>
      <use xlink:href="#DejaVuSans-74" x="295.125"/>
      <use xlink:href="#DejaVuSans-69" x="334.333984"/>
      <use xlink:href="#DejaVuSans-6d" x="362.117188"/>
      <use xlink:href="#DejaVuSans-65" x="459.529297"/>
     </g>
    </g>
   </g>
   <g id="matplotlib.axis_2">
    <g id="ytick_1">
     <g id="line2d_45">
      <defs>
       <path id="m8608cd1640" d="M 0 0 
L 5 0 
" style="stroke: #000000; stroke-width: 1.5"/>
      </defs>
      <g>
       <use xlink:href="#m8608cd1640" x="55.453125" y="201.204963" style="stroke: #000000; stroke-width: 1.5"/>
      </g>
     </g>
     <g id="line2d_46">
      <defs>
       <path id="m4ff91d9862" d="M 0 0 
L -5 0 
" style="stroke: #000000; stroke-width: 1.5"/>
      </defs>
      <g>
       <use xlink:href="#m4ff91d9862" x="390.253125" y="201.204963" style="stroke: #000000; stroke-width: 1.5"/>
      </g>
     </g>
     <g id="text_8">
      <!-- −0.3 -->
      <g transform="translate(22.81375 205.764026) scale(0.12 -0.12)">
       <defs>
        <path id="DejaVuSans-2212" d="M 678 2272 
L 4684 2272 
L 4684 1741 
L 678 1741 
L 678 2272 
z
" transform="scale(0.015625)"/>
        <path id="DejaVuSans-2e" d="M 684 794 
L 1344 794 
L 1344 0 
L 684 0 
L 684 794 
z
" transform="scale(0.015625)"/>
        <path id="DejaVuSans-33" d="M 2597 2516 
Q 3050 2419 3304 2112 
Q 3559 1806 3559 1356 
Q 3559 666 3084 287 
Q 2609 -91 1734 -91 
Q 1441 -91 1130 -33 
Q 819 25 488 141 
L 488 750 
Q 750 597 1062 519 
Q 1375 441 1716 441 
Q 2309 441 2620 675 
Q 2931 909 2931 1356 
Q 2931 1769 2642 2001 
Q 2353 2234 1838 2234 
L 1294 2234 
L 1294 2753 
L 1863 2753 
Q 2328 2753 2575 2939 
Q 2822 3125 2822 3475 
Q 2822 3834 2567 4026 
Q 2313 4219 1838 4219 
Q 1578 4219 1281 4162 
Q 984 4106 628 3988 
L 628 4550 
Q 988 4650 1302 4700 
Q 1616 4750 1894 4750 
Q 2613 4750 3031 4423 
Q 3450 4097 3450 3541 
Q 3450 3153 3228 2886 
Q 3006 2619 2597 2516 
z
" transform="scale(0.015625)"/>
       </defs>
       <use xlink:href="#DejaVuSans-2212"/>
       <use xlink:href="#DejaVuSans-30" x="83.789062"/>
       <use xlink:href="#DejaVuSans-2e" x="147.412109"/>
       <use xlink:href="#DejaVuSans-33" x="179.199219"/>
      </g>
     </g>
    </g>
    <g id="ytick_2">
     <g id="line2d_47">
      <g>
       <use xlink:href="#m8608cd1640" x="55.453125" y="160.673182" style="stroke: #000000; stroke-width: 1.5"/>
      </g>
     </g>
     <g id="line2d_48">
      <g>
       <use xlink:href="#m4ff91d9862" x="390.253125" y="160.673182" style="stroke: #000000; stroke-width: 1.5"/>
      </g>
     </g>
     <g id="text_9">
      <!-- −0.2 -->
      <g transform="translate(22.81375 165.232244) scale(0.12 -0.12)">
       <use xlink:href="#DejaVuSans-2212"/>
       <use xlink:href="#DejaVuSans-30" x="83.789062"/>
       <use xlink:href="#DejaVuSans-2e" x="147.412109"/>
       <use xlink:href="#DejaVuSans-32" x="179.199219"/>
      </g>
     </g>
    </g>
    <g id="ytick_3">
     <g id="line2d_49">
      <g>
       <use xlink:href="#m8608cd1640" x="55.453125" y="120.141401" style="stroke: #000000; stroke-width: 1.5"/>
      </g>
     </g>
     <g id="line2d_50">
      <g>
       <use xlink:href="#m4ff91d9862" x="390.253125" y="120.141401" style="stroke: #000000; stroke-width: 1.5"/>
      </g>
     </g>
     <g id="text_10">
      <!-- −0.1 -->
      <g transform="translate(22.81375 124.700463) scale(0.12 -0.12)">
       <use xlink:href="#DejaVuSans-2212"/>
       <use xlink:href="#DejaVuSans-30" x="83.789062"/>
       <use xlink:href="#DejaVuSans-2e" x="147.412109"/>
       <use xlink:href="#DejaVuSans-31" x="179.199219"/>
      </g>
     </g>
    </g>
    <g id="ytick_4">
     <g id="line2d_51">
      <g>
       <use xlink:href="#m8608cd1640" x="55.453125" y="79.60962" style="stroke: #000000; stroke-width: 1.5"/>
      </g>
     </g>
     <g id="line2d_52">
      <g>
       <use xlink:href="#m4ff91d9862" x="390.253125" y="79.60962" style="stroke: #000000; stroke-width: 1.5"/>
      </g>
     </g>
     <g id="text_11">
      <!-- 0.0 -->
      <g transform="translate(32.869375 84.168682) scale(0.12 -0.12)">
       <use xlink:href="#DejaVuSans-30"/>
       <use xlink:href="#DejaVuSans-2e" x="63.623047"/>
       <use xlink:href="#DejaVuSans-30" x="95.410156"/>
      </g>
     </g>
    </g>
    <g id="ytick_5">
     <g id="line2d_53">
      <g>
       <use xlink:href="#m8608cd1640" x="55.453125" y="39.077839" style="stroke: #000000; stroke-width: 1.5"/>
      </g>
     </g>
     <g id="line2d_54">
      <g>
       <use xlink:href="#m4ff91d9862" x="390.253125" y="39.077839" style="stroke: #000000; stroke-width: 1.5"/>
      </g>
     </g>
     <g id="text_12">
      <!-- 0.1 -->
      <g transform="translate(32.869375 43.636901) scale(0.12 -0.12)">
       <use xlink:href="#DejaVuSans-30"/>
       <use xlink:href="#DejaVuSans-2e" x="63.623047"/>
       <use xlink:href="#DejaVuSans-31" x="95.410156"/>
      </g>
     </g>
    </g>
    <g id="ytick_6">
     <g id="line2d_55">
      <defs>
       <path id="m5963f6f318" d="M 0 0 
L 3 0 
" style="stroke: #000000; stroke-width: 1.5"/>
      </defs>
      <g>
       <use xlink:href="#m5963f6f318" x="55.453125" y="233.630388" style="stroke: #000000; stroke-width: 1.5"/>
      </g>
     </g>
     <g id="line2d_56">
      <defs>
       <path id="m1276658dc7" d="M 0 0 
L -3 0 
" style="stroke: #000000; stroke-width: 1.5"/>
      </defs>
      <g>
       <use xlink:href="#m1276658dc7" x="390.253125" y="233.630388" style="stroke: #000000; stroke-width: 1.5"/>
      </g>
     </g>
    </g>
    <g id="ytick_7">
     <g id="line2d_57">
      <g>
       <use xlink:href="#m5963f6f318" x="55.453125" y="225.524032" style="stroke: #000000; stroke-width: 1.5"/>
      </g>
     </g>
     <g id="line2d_58">
      <g>
       <use xlink:href="#m1276658dc7" x="390.253125" y="225.524032" style="stroke: #000000; stroke-width: 1.5"/>
      </g>
     </g>
    </g>
    <g id="ytick_8">
     <g id="line2d_59">
      <g>
       <use xlink:href="#m5963f6f318" x="55.453125" y="217.417675" style="stroke: #000000; stroke-width: 1.5"/>
      </g>
     </g>
     <g id="line2d_60">
      <g>
       <use xlink:href="#m1276658dc7" x="390.253125" y="217.417675" style="stroke: #000000; stroke-width: 1.5"/>
      </g>
     </g>
    </g>
    <g id="ytick_9">
     <g id="line2d_61">
      <g>
       <use xlink:href="#m5963f6f318" x="55.453125" y="209.311319" style="stroke: #000000; stroke-width: 1.5"/>
      </g>
     </g>
     <g id="line2d_62">
      <g>
       <use xlink:href="#m1276658dc7" x="390.253125" y="209.311319" style="stroke: #000000; stroke-width: 1.5"/>
      </g>
     </g>
    </g>
    <g id="ytick_10">
     <g id="line2d_63">
      <g>
       <use xlink:href="#m5963f6f318" x="55.453125" y="193.098607" style="stroke: #000000; stroke-width: 1.5"/>
      </g>
     </g>
     <g id="line2d_64">
      <g>
       <use xlink:href="#m1276658dc7" x="390.253125" y="193.098607" style="stroke: #000000; stroke-width: 1.5"/>
      </g>
     </g>
    </g>
    <g id="ytick_11">
     <g id="line2d_65">
      <g>
       <use xlink:href="#m5963f6f318" x="55.453125" y="184.992251" style="stroke: #000000; stroke-width: 1.5"/>
      </g>
     </g>
     <g id="line2d_66">
      <g>
       <use xlink:href="#m1276658dc7" x="390.253125" y="184.992251" style="stroke: #000000; stroke-width: 1.5"/>
      </g>
     </g>
    </g>
    <g id="ytick_12">
     <g id="line2d_67">
      <g>
       <use xlink:href="#m5963f6f318" x="55.453125" y="176.885894" style="stroke: #000000; stroke-width: 1.5"/>
      </g>
     </g>
     <g id="line2d_68">
      <g>
       <use xlink:href="#m1276658dc7" x="390.253125" y="176.885894" style="stroke: #000000; stroke-width: 1.5"/>
      </g>
     </g>
    </g>
    <g id="ytick_13">
     <g id="line2d_69">
      <g>
       <use xlink:href="#m5963f6f318" x="55.453125" y="168.779538" style="stroke: #000000; stroke-width: 1.5"/>
      </g>
     </g>
     <g id="line2d_70">
      <g>
       <use xlink:href="#m1276658dc7" x="390.253125" y="168.779538" style="stroke: #000000; stroke-width: 1.5"/>
      </g>
     </g>
    </g>
    <g id="ytick_14">
     <g id="line2d_71">
      <g>
       <use xlink:href="#m5963f6f318" x="55.453125" y="152.566826" style="stroke: #000000; stroke-width: 1.5"/>
      </g>
     </g>
     <g id="line2d_72">
      <g>
       <use xlink:href="#m1276658dc7" x="390.253125" y="152.566826" style="stroke: #000000; stroke-width: 1.5"/>
      </g>
     </g>
    </g>
    <g id="ytick_15">
     <g id="line2d_73">
      <g>
       <use xlink:href="#m5963f6f318" x="55.453125" y="144.460469" style="stroke: #000000; stroke-width: 1.5"/>
      </g>
     </g>
     <g id="line2d_74">
      <g>
       <use xlink:href="#m1276658dc7" x="390.253125" y="144.460469" style="stroke: #000000; stroke-width: 1.5"/>
      </g>
     </g>
    </g>
    <g id="ytick_16">
     <g id="line2d_75">
      <g>
       <use xlink:href="#m5963f6f318" x="55.453125" y="136.354113" style="stroke: #000000; stroke-width: 1.5"/>
      </g>
     </g>
     <g id="line2d_76">
      <g>
       <use xlink:href="#m1276658dc7" x="390.253125" y="136.354113" style="stroke: #000000; stroke-width: 1.5"/>
      </g>
     </g>
    </g>
    <g id="ytick_17">
     <g id="line2d_77">
      <g>
       <use xlink:href="#m5963f6f318" x="55.453125" y="128.247757" style="stroke: #000000; stroke-width: 1.5"/>
      </g>
     </g>
     <g id="line2d_78">
      <g>
       <use xlink:href="#m1276658dc7" x="390.253125" y="128.247757" style="stroke: #000000; stroke-width: 1.5"/>
      </g>
     </g>
    </g>
    <g id="ytick_18">
     <g id="line2d_79">
      <g>
       <use xlink:href="#m5963f6f318" x="55.453125" y="112.035045" style="stroke: #000000; stroke-width: 1.5"/>
      </g>
     </g>
     <g id="line2d_80">
      <g>
       <use xlink:href="#m1276658dc7" x="390.253125" y="112.035045" style="stroke: #000000; stroke-width: 1.5"/>
      </g>
     </g>
    </g>
    <g id="ytick_19">
     <g id="line2d_81">
      <g>
       <use xlink:href="#m5963f6f318" x="55.453125" y="103.928688" style="stroke: #000000; stroke-width: 1.5"/>
      </g>
     </g>
     <g id="line2d_82">
      <g>
       <use xlink:href="#m1276658dc7" x="390.253125" y="103.928688" style="stroke: #000000; stroke-width: 1.5"/>
      </g>
     </g>
    </g>
    <g id="ytick_20">
     <g id="line2d_83">
      <g>
       <use xlink:href="#m5963f6f318" x="55.453125" y="95.822332" style="stroke: #000000; stroke-width: 1.5"/>
      </g>
     </g>
     <g id="line2d_84">
      <g>
       <use xlink:href="#m1276658dc7" x="390.253125" y="95.822332" style="stroke: #000000; stroke-width: 1.5"/>
      </g>
     </g>
    </g>
    <g id="ytick_21">
     <g id="line2d_85">
      <g>
       <use xlink:href="#m5963f6f318" x="55.453125" y="87.715976" style="stroke: #000000; stroke-width: 1.5"/>
      </g>
     </g>
     <g id="line2d_86">
      <g>
       <use xlink:href="#m1276658dc7" x="390.253125" y="87.715976" style="stroke: #000000; stroke-width: 1.5"/>
      </g>
     </g>
    </g>
    <g id="ytick_22">
     <g id="line2d_87">
      <g>
       <use xlink:href="#m5963f6f318" x="55.453125" y="71.503263" style="stroke: #000000; stroke-width: 1.5"/>
      </g>
     </g>
     <g id="line2d_88">
      <g>
       <use xlink:href="#m1276658dc7" x="390.253125" y="71.503263" style="stroke: #000000; stroke-width: 1.5"/>
      </g>
     </g>
    </g>
    <g id="ytick_23">
     <g id="line2d_89">
      <g>
       <use xlink:href="#m5963f6f318" x="55.453125" y="63.396907" style="stroke: #000000; stroke-width: 1.5"/>
      </g>
     </g>
     <g id="line2d_90">
      <g>
       <use xlink:href="#m1276658dc7" x="390.253125" y="63.396907" style="stroke: #000000; stroke-width: 1.5"/>
      </g>
     </g>
    </g>
    <g id="ytick_24">
     <g id="line2d_91">
      <g>
       <use xlink:href="#m5963f6f318" x="55.453125" y="55.290551" style="stroke: #000000; stroke-width: 1.5"/>
      </g>
     </g>
     <g id="line2d_92">
      <g>
       <use xlink:href="#m1276658dc7" x="390.253125" y="55.290551" style="stroke: #000000; stroke-width: 1.5"/>
      </g>
     </g>
    </g>
    <g id="ytick_25">
     <g id="line2d_93">
      <g>
       <use xlink:href="#m5963f6f318" x="55.453125" y="47.184195" style="stroke: #000000; stroke-width: 1.5"/>
      </g>
     </g>
     <g id="line2d_94">
      <g>
       <use xlink:href="#m1276658dc7" x="390.253125" y="47.184195" style="stroke: #000000; stroke-width: 1.5"/>
      </g>
     </g>
    </g>
    <g id="ytick_26">
     <g id="line2d_95">
      <g>
       <use xlink:href="#m5963f6f318" x="55.453125" y="30.971482" style="stroke: #000000; stroke-width: 1.5"/>
      </g>
     </g>
     <g id="line2d_96">
      <g>
       <use xlink:href="#m1276658dc7" x="390.253125" y="30.971482" style="stroke: #000000; stroke-width: 1.5"/>
      </g>
     </g>
    </g>
    <g id="text_13">
     <!-- Pulse amplitude -->
     <g transform="translate(16.318125 180.888) rotate(-90) scale(0.12 -0.12)">
      <defs>
       <path id="DejaVuSans-61" d="M 2194 1759 
Q 1497 1759 1228 1600 
Q 959 1441 959 1056 
Q 959 750 1161 570 
Q 1363 391 1709 391 
Q 2188 391 2477 730 
Q 2766 1069 2766 1631 
L 2766 1759 
L 2194 1759 
z
M 3341 1997 
L 3341 0 
L 2766 0 
L 2766 531 
Q 2569 213 2275 61 
Q 1981 -91 1556 -91 
Q 1019 -91 701 211 
Q 384 513 384 1019 
Q 384 1609 779 1909 
Q 1175 2209 1959 2209 
L 2766 2209 
L 2766 2266 
Q 2766 2663 2505 2880 
Q 2244 3097 1772 3097 
Q 1472 3097 1187 3025 
Q 903 2953 641 2809 
L 641 3341 
Q 956 3463 1253 3523 
Q 1550 3584 1831 3584 
Q 2591 3584 2966 3190 
Q 3341 2797 3341 1997 
z
" transform="scale(0.015625)"/>
       <path id="DejaVuSans-70" d="M 1159 525 
L 1159 -1331 
L 581 -1331 
L 581 3500 
L 1159 3500 
L 1159 2969 
Q 1341 3281 1617 3432 
Q 1894 3584 2278 3584 
Q 2916 3584 3314 3078 
Q 3713 2572 3713 1747 
Q 3713 922 3314 415 
Q 2916 -91 2278 -91 
Q 1894 -91 1617 61 
Q 1341 213 1159 525 
z
M 3116 1747 
Q 3116 2381 2855 2742 
Q 2594 3103 2138 3103 
Q 1681 3103 1420 2742 
Q 1159 2381 1159 1747 
Q 1159 1113 1420 752 
Q 1681 391 2138 391 
Q 2594 391 2855 752 
Q 3116 1113 3116 1747 
z
" transform="scale(0.015625)"/>
       <path id="DejaVuSans-64" d="M 2906 2969 
L 2906 4863 
L 3481 4863 
L 3481 0 
L 2906 0 
L 2906 525 
Q 2725 213 2448 61 
Q 2172 -91 1784 -91 
Q 1150 -91 751 415 
Q 353 922 353 1747 
Q 353 2572 751 3078 
Q 1150 3584 1784 3584 
Q 2172 3584 2448 3432 
Q 2725 3281 2906 2969 
z
M 947 1747 
Q 947 1113 1208 752 
Q 1469 391 1925 391 
Q 2381 391 2643 752 
Q 2906 1113 2906 1747 
Q 2906 2381 2643 2742 
Q 2381 3103 1925 3103 
Q 1469 3103 1208 2742 
Q 947 2381 947 1747 
z
" transform="scale(0.015625)"/>
      </defs>
      <use xlink:href="#DejaVuSans-50"/>
      <use xlink:href="#DejaVuSans-75" x="58.552734"/>
      <use xlink:href="#DejaVuSans-6c" x="121.931641"/>
      <use xlink:href="#DejaVuSans-73" x="149.714844"/>
      <use xlink:href="#DejaVuSans-65" x="201.814453"/>
      <use xlink:href="#DejaVuSans-20" x="263.337891"/>
      <use xlink:href="#DejaVuSans-61" x="295.125"/>
      <use xlink:href="#DejaVuSans-6d" x="356.404297"/>
      <use xlink:href="#DejaVuSans-70" x="453.816406"/>
      <use xlink:href="#DejaVuSans-6c" x="517.292969"/>
      <use xlink:href="#DejaVuSans-69" x="545.076172"/>
      <use xlink:href="#DejaVuSans-74" x="572.859375"/>
      <use xlink:href="#DejaVuSans-75" x="612.068359"/>
      <use xlink:href="#DejaVuSans-64" x="675.447266"/>
      <use xlink:href="#DejaVuSans-65" x="738.923828"/>
     </g>
    </g>
   </g>
   <g id="line2d_97">
    <path d="M 70.671307 207.658517 
L 73.714943 201.496474 
L 76.75858 195.247749 
L 79.802216 189.027217 
L 82.845852 182.944911 
L 85.889489 177.102169 
L 88.933125 171.588218 
L 91.976761 166.479765 
L 95.020398 161.839415 
L 98.064034 157.716958 
L 101.10767 154.150834 
L 104.151307 151.170462 
L 107.194943 148.799243 
L 110.23858 147.056693 
L 113.282216 145.960546 
L 116.325852 145.528157 
L 119.369489 145.776595 
L 122.413125 146.72184 
L 125.456761 148.376607 
L 128.500398 150.747584 
L 131.544034 153.83154 
L 134.58767 157.610997 
L 137.631307 162.050987 
L 140.674943 167.095783 
L 143.71858 172.666891 
L 146.762216 178.66185 
L 149.805852 184.957007 
L 152.849489 191.408637 
L 155.893125 197.858957 
L 158.936761 204.142461 
L 161.980398 210.092902 
L 165.024034 215.551348 
L 168.06767 220.373579 
L 171.111307 224.437618 
L 174.154943 227.648725 
L 177.19858 229.943814 
L 180.242216 231.292767 
L 183.285852 231.698114 
L 186.329489 231.192341 
L 189.373125 229.833636 
L 192.416761 227.700015 
L 195.460398 224.882342 
L 198.504034 221.477134 
L 201.54767 217.579496 
L 204.591307 213.276792 
L 207.634943 208.644204 
L 210.67858 203.740575 
L 213.722216 198.609128 
L 216.765852 193.277958 
L 219.809489 187.763394 
L 222.853125 182.075708 
L 225.896761 176.226035 
L 228.940398 170.232881 
L 231.984034 164.130364 
L 235.02767 157.97317 
L 238.071307 151.840762 
L 241.114943 145.839087 
L 244.15858 140.098971 
L 247.202216 134.772154 
L 250.245852 130.02448 
L 253.289489 126.025908 
L 256.333125 122.940161 
L 259.376761 120.913214 
L 262.420398 120.062172 
L 265.464034 120.465663 
L 268.50767 122.156016 
L 271.551307 125.114807 
L 274.594943 129.271292 
L 277.63858 134.504554 
L 280.682216 140.648789 
L 283.725852 147.502335 
L 286.769489 154.839055 
L 289.813125 162.422469 
L 292.856761 170.019354 
L 295.900398 177.414588 
L 298.944034 184.425328 
L 301.98767 190.910069 
L 305.031307 196.774746 
L 308.074943 201.974254 
L 311.11858 206.508574 
L 314.162216 210.413702 
L 317.205852 213.749602 
L 320.249489 216.585225 
L 323.293125 218.985189 
L 326.336761 220.995285 
L 329.380398 222.633652 
L 332.424034 223.886015 
L 335.46767 224.705226 
L 338.511307 225.0159 
L 341.554943 224.723244 
L 344.59858 223.724792 
L 347.642216 221.923649 
L 350.685852 219.242645 
L 353.729489 215.635476 
L 356.773125 211.096801 
L 359.816761 205.667957 
L 362.860398 199.437496 
L 365.904034 192.540428 
L 368.94767 185.146958 
L 371.991307 177.452979 
L 375.034943 169.666159 
" clip-path="url(#p3523188693)" style="fill: none; stroke: #0000ff; stroke-width: 1.5; stroke-linecap: square"/>
   </g>
   <g id="line2d_98">
    <path d="M 70.671307 138.215002 
L 73.714943 147.580973 
L 76.75858 157.038302 
L 79.802216 166.418937 
L 82.845852 175.55246 
L 85.889489 184.271033 
L 88.933125 192.414279 
L 91.976761 199.835428 
L 95.020398 206.405721 
L 98.064034 212.018832 
L 101.10767 216.593687 
L 104.151307 220.076011 
L 107.194943 222.438792 
L 110.23858 223.680306 
L 113.282216 223.821331 
L 116.325852 222.901157 
L 119.369489 220.973128 
L 122.413125 218.100022 
L 125.456761 214.34968 
L 128.500398 209.792012 
L 131.544034 204.496419 
L 134.58767 198.530967 
L 137.631307 191.963397 
L 140.674943 184.862901 
L 143.71858 177.303002 
L 146.762216 169.364928 
L 149.805852 161.141513 
L 152.849489 152.739404 
L 155.893125 144.281613 
L 158.936761 135.907498 
L 161.980398 127.771704 
L 165.024034 120.040277 
L 168.06767 112.885754 
L 171.111307 106.480864 
L 174.154943 100.990409 
L 177.19858 96.563746 
L 180.242216 93.326582 
L 183.285852 91.374549 
L 186.329489 90.767448 
L 189.373125 91.525737 
L 192.416761 93.628556 
L 195.460398 97.014593 
L 198.504034 101.584494 
L 201.54767 107.205705 
L 204.591307 113.718173 
L 207.634943 120.943113 
L 210.67858 128.690389 
L 213.722216 136.768361 
L 216.765852 144.992803 
L 219.809489 153.19482 
L 222.853125 161.227636 
L 225.896761 168.971257 
L 228.940398 176.334861 
L 231.984034 183.256834 
L 235.02767 189.702587 
L 238.071307 195.658475 
L 241.114943 201.125212 
L 244.15858 206.109919 
L 247.202216 210.617294 
L 250.245852 214.641657 
L 253.289489 218.160834 
L 256.333125 221.131467 
L 259.376761 223.48786 
L 262.420398 225.144322 
L 265.464034 225.999515 
L 268.50767 225.944572 
L 271.551307 224.873549 
L 274.594943 222.693861 
L 277.63858 219.338729 
L 280.682216 214.777574 
L 283.725852 209.025999 
L 286.769489 202.151276 
L 289.813125 194.276786 
L 292.856761 185.579147 
L 295.900398 176.282807 
L 298.944034 166.648798 
L 301.98767 156.959923 
L 305.031307 147.50349 
L 308.074943 138.551947 
L 311.11858 130.345705 
L 314.162216 123.077244 
L 317.205852 116.88102 
L 320.249489 111.829015 
L 323.293125 107.931455 
L 326.336761 105.14574 
L 329.380398 103.388196 
L 332.424034 102.548874 
L 335.46767 102.508544 
L 338.511307 103.154178 
L 341.554943 104.391717 
L 344.59858 106.15493 
L 347.642216 108.408987 
L 350.685852 111.150107 
L 353.729489 114.399256 
L 356.773125 118.192324 
L 359.816761 122.568076 
L 362.860398 127.554917 
L 365.904034 133.157244 
L 368.94767 139.346996 
L 371.991307 146.056289 
L 375.034943 153.174088 
" clip-path="url(#p3523188693)" style="fill: none; stroke-dasharray: 1.5,2.475; stroke-dashoffset: 0; stroke: #0000ff; stroke-width: 1.5"/>
   </g>
   <g id="line2d_99">
    <path d="M 70.671307 107.894466 
L 73.714943 109.401112 
L 76.75858 109.395934 
L 79.802216 107.833304 
L 82.845852 104.781203 
L 85.889489 100.416425 
L 88.933125 95.009708 
L 91.976761 88.902355 
L 95.020398 82.476299 
L 98.064034 76.121173 
L 101.10767 70.201984 
L 104.151307 65.030482 
L 107.194943 60.843092 
L 110.23858 57.787605 
L 113.282216 55.919253 
L 116.325852 55.206044 
L 119.369489 55.540973 
L 122.413125 56.759677 
L 125.456761 58.659894 
L 128.500398 61.021331 
L 131.544034 63.622302 
L 134.58767 66.252888 
L 137.631307 68.723838 
L 140.674943 70.871541 
L 143.71858 72.559857 
L 146.762216 73.68038 
L 149.805852 74.152365 
L 152.849489 73.923682 
L 155.893125 72.972606 
L 158.936761 71.310856 
L 161.980398 68.987378 
L 165.024034 66.090131 
L 168.06767 62.746494 
L 171.111307 59.118933 
L 174.154943 55.397105 
L 177.19858 51.784595 
L 180.242216 48.482941 
L 183.285852 45.673121 
L 186.329489 43.497173 
L 189.373125 42.042917 
L 192.416761 41.333287 
L 195.460398 41.321853 
L 198.504034 41.896871 
L 201.54767 42.892533 
L 204.591307 44.107611 
L 207.634943 45.328843 
L 210.67858 46.357593 
L 213.722216 47.035491 
L 216.765852 47.267309 
L 219.809489 47.035945 
L 222.853125 46.408064 
L 225.896761 45.52898 
L 228.940398 44.605984 
L 231.984034 43.88305 
L 235.02767 43.607545 
L 238.071307 43.995769 
L 241.114943 45.199568 
L 244.15858 47.279872 
L 247.202216 50.190566 
L 250.245852 53.775946 
L 253.289489 57.781699 
L 256.333125 61.879036 
L 259.376761 65.69914 
L 262.420398 68.873588 
L 265.464034 71.076809 
L 268.50767 72.062765 
L 271.551307 71.695697 
L 274.594943 69.967565 
L 277.63858 67.001577 
L 280.682216 63.041897 
L 283.725852 58.429736 
L 286.769489 53.56925 
L 289.813125 48.886055 
L 292.856761 44.783748 
L 295.900398 41.601586 
L 298.944034 39.579602 
L 301.98767 38.833938 
L 305.031307 39.34621 
L 308.074943 40.967578 
L 311.11858 43.438855 
L 314.162216 46.422884 
L 317.205852 49.546901 
L 320.249489 52.448608 
L 323.293125 54.820164 
L 326.336761 56.445196 
L 329.380398 57.222371 
L 332.424034 57.174375 
L 335.46767 56.440291 
L 338.511307 55.253174 
L 341.554943 53.905917 
L 344.59858 52.71029 
L 347.642216 51.954336 
L 350.685852 51.863824 
L 353.729489 52.572624 
L 356.773125 54.105166 
L 359.816761 56.373565 
L 362.860398 59.189026 
L 365.904034 62.286102 
L 368.94767 65.357311 
L 371.991307 68.091803 
L 375.034943 70.215274 
" clip-path="url(#p3523188693)" style="fill: none; stroke: #ff0000; stroke-width: 1.5; stroke-linecap: square"/>
   </g>
   <g id="line2d_100">
    <path d="M 70.671307 92.736314 
L 73.714943 85.578137 
L 76.75858 77.999372 
L 79.802216 70.421277 
L 82.845852 63.262218 
L 85.889489 56.904434 
L 88.933125 51.663757 
L 91.976761 47.765451 
L 95.020398 45.328307 
L 98.064034 44.359209 
L 101.10767 44.758145 
L 104.151307 46.332755 
L 107.194943 48.820472 
L 110.23858 51.915714 
L 113.282216 55.298281 
L 116.325852 58.660224 
L 119.369489 61.728046 
L 122.413125 64.2787 
L 125.456761 66.148438 
L 128.500398 67.234974 
L 131.544034 67.494089 
L 134.58767 66.93226 
L 137.631307 65.597477 
L 140.674943 63.570131 
L 143.71858 60.95514 
L 146.762216 57.876176 
L 149.805852 54.471472 
L 152.849489 50.890928 
L 155.893125 47.294021 
L 158.936761 43.845018 
L 161.980398 40.708168 
L 165.024034 38.038706 
L 168.06767 35.972414 
L 171.111307 34.613987 
L 174.154943 34.025386 
L 177.19858 34.217031 
L 180.242216 35.142376 
L 183.285852 36.698968 
L 186.329489 38.735218 
L 189.373125 41.063785 
L 192.416761 43.479771 
L 195.460398 45.782449 
L 198.504034 47.797932 
L 201.54767 49.400044 
L 204.591307 50.526303 
L 207.634943 51.187949 
L 210.67858 51.469949 
L 213.722216 51.523524 
L 216.765852 51.548056 
L 219.809489 51.765902 
L 222.853125 52.392735 
L 225.896761 53.606611 
L 228.940398 55.520467 
L 231.984034 58.160289 
L 235.02767 61.455398 
L 238.071307 65.239767 
L 241.114943 69.266454 
L 244.15858 73.233727 
L 247.202216 76.819949 
L 250.245852 79.722731 
L 253.289489 81.696949 
L 256.333125 82.588015 
L 259.376761 82.354547 
L 262.420398 81.078154 
L 265.464034 78.958671 
L 268.50767 76.295307 
L 271.551307 73.455925 
L 274.594943 70.837931 
L 277.63858 68.825062 
L 280.682216 67.745575 
L 283.725852 67.835658 
L 286.769489 69.212674 
L 289.813125 71.861128 
L 292.856761 75.632342 
L 295.900398 80.259263 
L 298.944034 85.383414 
L 301.98767 90.592866 
L 305.031307 95.466803 
L 308.074943 99.620767 
L 311.11858 102.748971 
L 314.162216 104.656591 
L 317.205852 105.279363 
L 320.249489 104.686843 
L 323.293125 103.069111 
L 326.336761 100.709204 
L 329.380398 97.944278 
L 332.424034 95.120887 
L 335.46767 92.550723 
L 338.511307 90.472287 
L 341.554943 89.023264 
L 344.59858 88.226964 
L 347.642216 87.99408 
L 350.685852 88.139273 
L 353.729489 88.410129 
L 356.773125 88.524308 
L 359.816761 88.210331 
L 362.860398 87.246591 
L 365.904034 85.493882 
L 368.94767 82.916694 
L 371.991307 79.592066 
L 375.034943 75.703744 
" clip-path="url(#p3523188693)" style="fill: none; stroke-dasharray: 1.5,2.475; stroke-dashoffset: 0; stroke: #ff0000; stroke-width: 1.5"/>
   </g>
   <g id="patch_3">
    <path d="M 55.453125 241.58175 
L 55.453125 24.14175 
" style="fill: none; stroke: #000000; stroke-width: 1.5; stroke-linejoin: miter; stroke-linecap: square"/>
   </g>
   <g id="patch_4">
    <path d="M 390.253125 241.58175 
L 390.253125 24.14175 
" style="fill: none; stroke: #000000; stroke-width: 1.5; stroke-linejoin: miter; stroke-linecap: square"/>
   </g>
   <g id="patch_5">
    <path d="M 55.453125 241.58175 
L 390.253125 241.58175 
" style="fill: none; stroke: #000000; stroke-width: 1.5; stroke-linejoin: miter; stroke-linecap: square"/>
   </g>
   <g id="patch_6">
    <path d="M 55.453125 24.14175 
L 390.253125 24.14175 
" style="fill: none; stroke: #000000; stroke-width: 1.5; stroke-linejoin: miter; stroke-linecap: square"/>
   </g>
   <g id="text_14">
    <!-- Final pulses -->
    <g transform="translate(180.904125 18.14175) scale(0.144 -0.144)">
     <defs>
      <path id="DejaVuSans-46" d="M 628 4666 
L 3309 4666 
L 3309 4134 
L 1259 4134 
L 1259 2759 
L 3109 2759 
L 3109 2228 
L 1259 2228 
L 1259 0 
L 628 0 
L 628 4666 
z
" transform="scale(0.015625)"/>
      <path id="DejaVuSans-6e" d="M 3513 2113 
L 3513 0 
L 2938 0 
L 2938 2094 
Q 2938 2591 2744 2837 
Q 2550 3084 2163 3084 
Q 1697 3084 1428 2787 
Q 1159 2491 1159 1978 
L 1159 0 
L 581 0 
L 581 3500 
L 1159 3500 
L 1159 2956 
Q 1366 3272 1645 3428 
Q 1925 3584 2291 3584 
Q 2894 3584 3203 3211 
Q 3513 2838 3513 2113 
z
" transform="scale(0.015625)"/>
     </defs>
     <use xlink:href="#DejaVuSans-46"/>
     <use xlink:href="#DejaVuSans-69" x="50.269531"/>
     <use xlink:href="#DejaVuSans-6e" x="78.052734"/>
     <use xlink:href="#DejaVuSans-61" x="141.431641"/>
     <use xlink:href="#DejaVuSans-6c" x="202.710938"/>
     <use xlink:href="#DejaVuSans-20" x="230.494141"/>
     <use xlink:href="#DejaVuSans-70" x="262.28125"/>
     <use xlink:href="#DejaVuSans-75" x="325.757812"/>
     <use xlink:href="#DejaVuSans-6c" x="389.136719"/>
     <use xlink:href="#DejaVuSans-73" x="416.919922"/>
     <use xlink:href="#DejaVuSans-65" x="469.019531"/>
     <use xlink:href="#DejaVuSans-73" x="530.542969"/>
    </g>
   </g>
   <g id="legend_1">
    <g id="patch_7">
     <path d="M 181.71875 163.718 
L 263.9875 163.718 
Q 265.9875 163.718 265.9875 161.718 
L 265.9875 104.0055 
Q 265.9875 102.0055 263.9875 102.0055 
L 181.71875 102.0055 
Q 179.71875 102.0055 179.71875 104.0055 
L 179.71875 161.718 
Q 179.71875 163.718 181.71875 163.718 
z
" style="fill: #ffffff; opacity: 0.8; stroke: #cccccc; stroke-linejoin: miter"/>
    </g>
    <g id="line2d_101">
     <path d="M 183.71875 110.103938 
L 193.71875 110.103938 
L 203.71875 110.103938 
" style="fill: none; stroke: #0000ff; stroke-width: 2; stroke-linecap: square"/>
    </g>
    <g id="text_15">
     <!-- qubit 0 -->
     <g transform="translate(211.71875 113.603938) scale(0.1 -0.1)">
      <defs>
       <path id="DejaVuSans-71" d="M 947 1747 
Q 947 1113 1208 752 
Q 1469 391 1925 391 
Q 2381 391 2643 752 
Q 2906 1113 2906 1747 
Q 2906 2381 2643 2742 
Q 2381 3103 1925 3103 
Q 1469 3103 1208 2742 
Q 947 2381 947 1747 
z
M 2906 525 
Q 2725 213 2448 61 
Q 2172 -91 1784 -91 
Q 1150 -91 751 415 
Q 353 922 353 1747 
Q 353 2572 751 3078 
Q 1150 3584 1784 3584 
Q 2172 3584 2448 3432 
Q 2725 3281 2906 2969 
L 2906 3500 
L 3481 3500 
L 3481 -1331 
L 2906 -1331 
L 2906 525 
z
" transform="scale(0.015625)"/>
       <path id="DejaVuSans-62" d="M 3116 1747 
Q 3116 2381 2855 2742 
Q 2594 3103 2138 3103 
Q 1681 3103 1420 2742 
Q 1159 2381 1159 1747 
Q 1159 1113 1420 752 
Q 1681 391 2138 391 
Q 2594 391 2855 752 
Q 3116 1113 3116 1747 
z
M 1159 2969 
Q 1341 3281 1617 3432 
Q 1894 3584 2278 3584 
Q 2916 3584 3314 3078 
Q 3713 2572 3713 1747 
Q 3713 922 3314 415 
Q 2916 -91 2278 -91 
Q 1894 -91 1617 61 
Q 1341 213 1159 525 
L 1159 0 
L 581 0 
L 581 4863 
L 1159 4863 
L 1159 2969 
z
" transform="scale(0.015625)"/>
      </defs>
      <use xlink:href="#DejaVuSans-71"/>
      <use xlink:href="#DejaVuSans-75" x="63.476562"/>
      <use xlink:href="#DejaVuSans-62" x="126.855469"/>
      <use xlink:href="#DejaVuSans-69" x="190.332031"/>
      <use xlink:href="#DejaVuSans-74" x="218.115234"/>
      <use xlink:href="#DejaVuSans-20" x="257.324219"/>
      <use xlink:href="#DejaVuSans-30" x="289.111328"/>
     </g>
    </g>
    <g id="line2d_102">
     <path d="M 183.71875 124.782063 
L 193.71875 124.782063 
L 203.71875 124.782063 
" style="fill: none; stroke: #ff0000; stroke-width: 2; stroke-linecap: square"/>
    </g>
    <g id="text_16">
     <!-- qubit 1 -->
     <g transform="translate(211.71875 128.282063) scale(0.1 -0.1)">
      <use xlink:href="#DejaVuSans-71"/>
      <use xlink:href="#DejaVuSans-75" x="63.476562"/>
      <use xlink:href="#DejaVuSans-62" x="126.855469"/>
      <use xlink:href="#DejaVuSans-69" x="190.332031"/>
      <use xlink:href="#DejaVuSans-74" x="218.115234"/>
      <use xlink:href="#DejaVuSans-20" x="257.324219"/>
      <use xlink:href="#DejaVuSans-31" x="289.111328"/>
     </g>
    </g>
    <g id="line2d_103">
     <path d="M 183.71875 139.460188 
L 193.71875 139.460188 
L 203.71875 139.460188 
" style="fill: none; stroke: #808080; stroke-width: 2; stroke-linecap: square"/>
    </g>
    <g id="text_17">
     <!-- real -->
     <g transform="translate(211.71875 142.960188) scale(0.1 -0.1)">
      <defs>
       <path id="DejaVuSans-72" d="M 2631 2963 
Q 2534 3019 2420 3045 
Q 2306 3072 2169 3072 
Q 1681 3072 1420 2755 
Q 1159 2438 1159 1844 
L 1159 0 
L 581 0 
L 581 3500 
L 1159 3500 
L 1159 2956 
Q 1341 3275 1631 3429 
Q 1922 3584 2338 3584 
Q 2397 3584 2469 3576 
Q 2541 3569 2628 3553 
L 2631 2963 
z
" transform="scale(0.015625)"/>
      </defs>
      <use xlink:href="#DejaVuSans-72"/>
      <use xlink:href="#DejaVuSans-65" x="38.863281"/>
      <use xlink:href="#DejaVuSans-61" x="100.386719"/>
      <use xlink:href="#DejaVuSans-6c" x="161.666016"/>
     </g>
    </g>
    <g id="line2d_104">
     <path d="M 183.71875 154.138313 
L 193.71875 154.138313 
L 203.71875 154.138313 
" style="fill: none; stroke-dasharray: 2,3.3; stroke-dashoffset: 0; stroke: #808080; stroke-width: 2"/>
    </g>
    <g id="text_18">
     <!-- imaginary -->
     <g transform="translate(211.71875 157.638313) scale(0.1 -0.1)">
      <defs>
       <path id="DejaVuSans-67" d="M 2906 1791 
Q 2906 2416 2648 2759 
Q 2391 3103 1925 3103 
Q 1463 3103 1205 2759 
Q 947 2416 947 1791 
Q 947 1169 1205 825 
Q 1463 481 1925 481 
Q 2391 481 2648 825 
Q 2906 1169 2906 1791 
z
M 3481 434 
Q 3481 -459 3084 -895 
Q 2688 -1331 1869 -1331 
Q 1566 -1331 1297 -1286 
Q 1028 -1241 775 -1147 
L 775 -588 
Q 1028 -725 1275 -790 
Q 1522 -856 1778 -856 
Q 2344 -856 2625 -561 
Q 2906 -266 2906 331 
L 2906 616 
Q 2728 306 2450 153 
Q 2172 0 1784 0 
Q 1141 0 747 490 
Q 353 981 353 1791 
Q 353 2603 747 3093 
Q 1141 3584 1784 3584 
Q 2172 3584 2450 3431 
Q 2728 3278 2906 2969 
L 2906 3500 
L 3481 3500 
L 3481 434 
z
" transform="scale(0.015625)"/>
       <path id="DejaVuSans-79" d="M 2059 -325 
Q 1816 -950 1584 -1140 
Q 1353 -1331 966 -1331 
L 506 -1331 
L 506 -850 
L 844 -850 
Q 1081 -850 1212 -737 
Q 1344 -625 1503 -206 
L 1606 56 
L 191 3500 
L 800 3500 
L 1894 763 
L 2988 3500 
L 3597 3500 
L 2059 -325 
z
" transform="scale(0.015625)"/>
      </defs>
      <use xlink:href="#DejaVuSans-69"/>
      <use xlink:href="#DejaVuSans-6d" x="27.783203"/>
      <use xlink:href="#DejaVuSans-61" x="125.195312"/>
      <use xlink:href="#DejaVuSans-67" x="186.474609"/>
      <use xlink:href="#DejaVuSans-69" x="249.951172"/>
      <use xlink:href="#DejaVuSans-6e" x="277.734375"/>
      <use xlink:href="#DejaVuSans-61" x="341.113281"/>
      <use xlink:href="#DejaVuSans-72" x="402.392578"/>
      <use xlink:href="#DejaVuSans-79" x="443.505859"/>
     </g>
    </g>
   </g>
  </g>
 </g>
 <defs>
  <clipPath id="p3523188693">
   <rect x="55.453125" y="24.14175" width="334.8" height="217.44"/>
  </clipPath>
 </defs>
</svg>
